<svg width="111" height="124" viewBox="0 0 111 124" fill="none" xmlns="http://www.w3.org/2000/svg">
<path d="M103.674 35.2719L110.556 10.887C110.647 10.6129 110.321 10.391 110.099 10.5737L58.0334 58.1948V0H54.7426V42.6213C54.7426 52.7773 46.5025 61.0144 36.3427 61.0144H0V64.304H48.7747L9.04976 87.5793C8.22706 88.0232 7.61329 88.7803 7.326 89.668L0.444 114.183C0.352588 114.458 0.679059 114.679 0.901059 114.497L52.9796 68.403V124H56.2705V81.3787C56.2705 71.2227 64.5106 62.9856 74.6703 62.9856H111V59.696H66.0254L102.029 37.3083C102.812 36.8515 103.4 36.1335 103.674 35.2719Z" fill="black"/>
</svg>
